<?xml version="1.0" encoding="UTF-8"?>
<svg xmlns="http://www.w3.org/2000/svg" xmlns:xlink="http://www.w3.org/1999/xlink" width="375pt" height="374.999991pt" viewBox="0 0 375 374.999991" version="1.2">
<g id="surface1">
<path style=" stroke:none;fill-rule:nonzero;fill:rgb(18.818665%,21.958923%,27.449036%);fill-opacity:1;" d="M 190.703125 156.449219 C 190.582031 119.410156 190.792969 3.890625 190.792969 3.890625 C 87.65625 -0.503906 45.867188 41.011719 29.183594 79.851562 C 32 102.671875 67.46875 160.699219 190.703125 156.449219 Z M 190.703125 156.449219 "/>
<path style=" stroke:none;fill-rule:nonzero;fill:rgb(91.369629%,21.569824%,28.239441%);fill-opacity:1;" d="M 18.996094 120.691406 L 18.996094 195.277344 C 18.996094 195.277344 -1.984375 381.21875 237.492188 371.03125 C 237.492188 371.03125 237.125 152.152344 237.492188 152.308594 C 75.988281 174.785156 32.304688 105.304688 29.183594 79.839844 C 29.183594 79.839844 18.996094 102.144531 18.996094 120.691406 Z M 18.996094 120.691406 "/>
<path style="fill:none;stroke-width:15;stroke-linecap:butt;stroke-linejoin:miter;stroke:rgb(0%,84.709167%,31.759644%);stroke-opacity:1;stroke-miterlimit:10;" d="M 269.461214 124.840512 L 200.669013 224.399934 L 146.841139 155.631355 L 111.931267 215.789836 L 75.359021 177.218606 L 61.670265 198.799952 L 21.489808 152.619592 " transform="matrix(1.322938,0,0,1.322938,0.0000045,0)"/>
</g>
</svg>
